<?xml version="1.0" encoding="utf-8"?>
<!-- Generator: Adobe Illustrator 19.0.0, SVG Export Plug-In . SVG Version: 6.00 Build 0)  -->
<svg version="1.2" baseProfile="tiny" xmlns="http://www.w3.org/2000/svg" xmlns:xlink="http://www.w3.org/1999/xlink" x="0px"
	 y="0px" viewBox="0 0 460 127" xml:space="preserve">
<g id="Layer_1">
	<g id="XMLID_56_">
		<polygon id="XMLID_85_" fill-rule="evenodd" fill="#265BAA" points="425.2,101 254.6,101 284.1,8 454.7,8 		"/>
		<polygon id="XMLID_84_" fill-rule="evenodd" fill="#EC2227" points="254.6,101 31.1,101 60.5,8 284.1,8 		"/>
		<path id="XMLID_74_" fill-rule="evenodd" fill="#FFFFFF" d="M247,55.2c-2.2,7.3-5.6,12.9-10,16.8c-4.4,3.9-10.6,5.9-18.7,5.9
			c-8,0-13.1-2-15.1-5.9c-2-3.9-2-9.5,0.3-16.8c2.2-7.3,5.5-12.9,10-16.9c4.4-4,10.7-5.9,18.7-5.9c8,0,13.1,2,15.1,5.9
			C249.3,42.3,249.2,47.9,247,55.2 M220.5,71c3.7,0,6.5-1.4,8.5-4.1c2-2.7,3.7-6.6,5.3-11.8c1.6-5.4,2.2-9.4,1.9-11.9
			c-0.4-2.6-2.4-3.9-6.1-3.9c-3.7,0-6.5,1.3-8.5,3.9c-2,2.6-3.8,6.6-5.3,11.9c-1.6,5.1-2.2,9-1.8,11.8C214.8,69.6,216.8,71,220.5,71
			z M201.4,55.2c-2.2,7.3-5.6,12.9-10,16.8c-4.4,3.9-10.6,5.9-18.7,5.9c-8,0-13.1-2-15.1-5.9c-2-3.9-2-9.5,0.3-16.8
			c2.2-7.3,5.5-12.9,10-16.9c4.4-4,10.7-5.9,18.7-5.9c8,0,13.1,2,15.1,5.9C203.7,42.3,203.6,47.9,201.4,55.2z M174.9,71
			c3.7,0,6.5-1.4,8.5-4.1c2-2.7,3.7-6.6,5.3-11.8c1.6-5.4,2.2-9.4,1.9-11.9c-0.4-2.6-2.4-3.9-6.1-3.9c-3.7,0-6.5,1.3-8.5,3.9
			c-2,2.6-3.8,6.6-5.3,11.9c-1.6,5.1-2.2,9-1.8,11.8C169.1,69.6,171.2,71,174.9,71z M135.2,50.7c2.5,0,4.6-0.5,6.3-1.6
			c1.7-1,2.8-2.4,3.2-4.1c0.6-1.8,0.3-3.2-0.8-4.2c-1.1-1-2.9-1.5-5.4-1.5c-2.5,0-4.6,0.5-6.3,1.5c-1.7,1-2.8,2.4-3.4,4.2
			c-0.5,1.7-0.2,3,0.9,4.1C130.9,50.2,132.7,50.7,135.2,50.7z M121.9,53.4c-2.6-1.4-4.2-3-4.6-4.7c-0.4-1.7-0.4-3.2,0-4.7
			c1-3.2,3.5-6,7.7-8.3c4.1-2.3,9.3-3.4,15.6-3.4c6.3,0,10.8,1.1,13.6,3.4c2.8,2.3,3.7,5,2.7,8.3c-0.4,1.5-1.4,3-2.8,4.7
			c-1.4,1.7-3.8,3.1-7.2,4.4c2.7,1.2,4.6,2.8,5.5,4.8c1,2,1.1,4.2,0.3,6.7c-1.1,3.7-4.1,6.8-8.8,9.4c-4.7,2.6-10.6,3.9-17.7,3.9
			c-7,0-12-1.3-14.8-3.9c-2.8-2.6-3.7-5.7-2.6-9.4c0.8-2.5,2.2-4.7,4.5-6.7C115.6,55.9,118.5,54.4,121.9,53.4z M129,71
			c2.8,0,5.2-0.6,7.2-1.8c2-1.2,3.3-2.9,4-5.1c0.7-2.3,0.4-4-0.9-5.2c-1.3-1.2-3.3-1.8-6.1-1.8c-2.8,0-5.2,0.6-7.2,1.8
			c-2,1.2-3.3,2.9-4,5.2c-0.7,2.2-0.4,3.9,0.9,5.1C124.1,70.4,126.2,71,129,71z M92.1,78l2.7-10h13.2l-2.7,10H92.1z M83.6,46H68.7
			l1.8-5.6c4-0.1,6.8-0.2,8.4-0.4c2.6-0.4,4.9-1.1,6.8-2.2c1.3-0.8,2.5-1.7,3.4-3.1c0.6-0.8,0.9-1.7,1-1.7h10.3L87,78H74.4L83.6,46z
			"/>
		<g id="XMLID_58_">
			<path id="XMLID_70_" fill-rule="evenodd" fill="#FFFFFF" d="M383,40h-11.7l-8.8,28h12.2c6.3,0,11.3-1.7,15.1-6
				c2.1-2.4,3.6-5,4.6-8.2c1.4-4.5,1.4-7.8,0.1-10.3c-1.3-2.4-5.3-3.5-11.3-3.5 M311.6,67.1L333.7,32h19.1l-13.5,44h-12.4l9.1-29.8
				l1.2-3.5l1.1-3.9L315,76h-12.9l-0.6-37.1l-1,3.8l-1.1,3.4L290.2,76h-12.4l13.5-44h19.3L311.6,67.1z M397.6,33
				c4.1,1,7.2,2.9,9.1,5.7c1.5,2.2,2.3,4.6,2.3,7.2c0,2.6-0.3,5.1-1,7.4c-1.8,6-5,10.6-9.6,14.7c-6.3,5.6-14.2,8-23.8,8h-27.3
				l13.5-44h27.3C392,32,395.2,32.4,397.6,33z"/>
			<g id="XMLID_59_">
				<g id="XMLID_65_">
					<path id="XMLID_68_" fill="#9BDBF2" d="M417.3,33h-2.7l0.2-1h6.2l-0.2,1h-2.4l-1.7,7h-1.2L417.3,33z"/>
					<path id="XMLID_66_" fill="#9BDBF2" d="M423.3,32h1.6l0.9,6h0l3.9-6h1.8l-1.8,8h-1.2l1.7-7h0l-4,7H425l-0.9-7h0l-1.5,7h-1.2
						L423.3,32z"/>
				</g>
				<g id="XMLID_60_">
					<path id="XMLID_63_" fill="#9BDBF2" d="M417.3,33h-2.7l0.2-1h6.2l-0.2,1h-2.4l-1.7,7h-1.2L417.3,33z"/>
					<path id="XMLID_61_" fill="#9BDBF2" d="M423.3,32h1.6l0.9,6h0l3.9-6h1.8l-1.8,8h-1.2l1.7-7h0l-4,7H425l-0.9-7h0l-1.5,7h-1.2
						L423.3,32z"/>
				</g>
			</g>
		</g>
		<path id="XMLID_57_" fill="#EC2227" d="M41.9,101.2"/>
	</g>
</g>
<g id="Layer_2">
	<polygon id="XMLID_55_" fill="none" stroke="#FFFFFF" stroke-miterlimit="10" points="60.5,8 454.7,8 425.2,101 31.1,101 	"/>
</g>
</svg>
