<?xml version="1.0" encoding="utf-8"?>
<!-- Generator: Adobe Illustrator 19.1.0, SVG Export Plug-In . SVG Version: 6.00 Build 0)  -->
<svg version="1.1" id="Layer_1" xmlns="http://www.w3.org/2000/svg" xmlns:xlink="http://www.w3.org/1999/xlink" x="0px" y="0px"
	 viewBox="-412 224.7 133.2 112.3" style="enable-background:new -412 224.7 133.2 112.3;" xml:space="preserve">
<style type="text/css">
	.st0{fill:none;}
	.st1{fill:#265BAA;}
	.st2{fill:#EC2227;}
	.st3{fill:#FFFFFF;}
	.st4{fill:#9BDBF2;}
</style>
<g>
	<path class="st0" d="M-380.3,301.9c4-13.7,11.3-14.1,12.9-14.5c0.2,0,0.4-0.1,0.6-0.1c4.8-4.4,1.5-22.9,1.5-22.9
		c0-28.2,19.1-25.4,19.1-25.4c0.2,0,0.5,0,0.7,0s0.5,0,0.7,0c0,0,19.1-2.8,19.1,25.4c0,0-3.3,18.5,1.5,22.9c0.2,0,0.4,0.1,0.6,0.1
		c1.6,0.4,8.9,0.8,12.9,14.5c0,0.2,0.1,0.3,0.1,0.5c5.1-7.1,8.2-15.8,8.2-25.2c0-23.7-19.3-43-43-43s-43,19.3-43,43
		c0,9.4,3,18.1,8.2,25.2C-380.4,302.2-380.4,302.1-380.3,301.9z"/>
	<path class="st0" d="M-360.6,263.2c-0.1,0-0.2,0.1-0.3,0.1c-0.6,0.5-0.9,2-0.6,3.8c0.2,1.4,0.8,2.5,1.3,3.1
		c0.3,0.3,0.6,0.4,0.8,0.4c0.1,0,0.3-0.1,0.4-0.2c1.3,4.1,3.9,8.3,7.1,10.8c1.9,1.5,4,2.4,6.3,2.4c2.2,0,4.3-0.9,6.2-2.3
		c3.2-2.5,5.8-6.6,7.1-10.8c0.1,0.1,0.2,0.2,0.4,0.2c0.2,0,0.5-0.1,0.7-0.3c0.6-0.5,1.2-1.7,1.4-3.2c0.3-1.9,0-3.6-0.7-3.9
		c-0.1,0-0.1,0-0.2-0.1l-1.6,1.6l-20.1-10.3c-6.6-0.6-7.6,8.2-7.7,8.9v0.1l0,0C-360.1,263.3-360.3,263.2-360.6,263.2z"/>
	<path class="st0" d="M-332.7,286.4C-332.7,286.4-332.7,286.3-332.7,286.4c-0.7-0.3-3.3-1.4-3.3-4l0,0c-1.6,1.6-3.5,2.9-5.4,3.7
		c-1.3,0.5-2.7,0.8-4.1,0.8s-2.8-0.3-4.1-0.8c-2-0.8-3.8-2.1-5.4-3.7l0,0c0,2-1.5,3.2-2.6,3.7c-0.1,0.1-0.2,0.1-0.3,0.2
		c-0.3,0.1-0.5,0.2-0.5,0.2l0,0c0.1,0.5,0.3,1,0.7,1.5c1.7,2.2,6.6,5.4,12.3,5.4c5.7,0,10.6-3.2,12.3-5.4
		C-333,287.4-332.7,286.9-332.7,286.4z"/>
	<path class="st1" d="M-345.6,230.2c-25.9,0-47,21.1-47,47c0,25.9,21.1,47,47,47s47-21.1,47-47
		C-298.6,251.3-319.7,230.2-345.6,230.2z M-345.6,234.2c23.7,0,43,19.3,43,43c0,9.4-3,18.1-8.2,25.2c0-0.2-0.1-0.3-0.1-0.5
		c-4-13.7-11.3-14.1-12.9-14.5c-0.2,0-0.4-0.1-0.6-0.1c-4.8-4.4-1.5-22.9-1.5-22.9c0-28.2-19.1-25.4-19.1-25.4c-0.2,0-0.5,0-0.7,0
		s-0.5,0-0.7,0c0,0-19.1-2.8-19.1,25.4c0,0,3.3,18.5-1.5,22.9c-0.2,0-0.4,0.1-0.6,0.1c-1.6,0.4-8.9,0.8-12.9,14.5
		c0,0.2-0.1,0.3-0.1,0.5c-5.1-7.1-8.2-15.8-8.2-25.2C-388.6,253.5-369.3,234.2-345.6,234.2z M-359.9,263.4c0.1-0.8,1.1-9.5,7.7-8.9
		l20.1,10.3l1.6-1.6c0.1,0,0.1,0,0.2,0.1c0.7,0.3,1,2,0.7,3.9c-0.3,1.5-0.8,2.7-1.4,3.2c-0.2,0.2-0.5,0.3-0.7,0.3
		c-0.1,0-0.3-0.1-0.4-0.2c-1.3,4.2-3.9,8.3-7.1,10.8c-1.9,1.5-4,2.3-6.2,2.3s-4.4-0.9-6.3-2.4c-3.2-2.5-5.8-6.6-7.1-10.8
		c-0.1,0.1-0.2,0.2-0.4,0.2c-0.3,0-0.6-0.1-0.8-0.4c-0.6-0.6-1.1-1.7-1.3-3.1c-0.3-1.8-0.1-3.4,0.6-3.8c0.1-0.1,0.2-0.1,0.3-0.1
		C-360.3,263.2-360.1,263.3-359.9,263.4L-359.9,263.4L-359.9,263.4z M-345.6,293.2c-5.7,0-10.6-3.2-12.3-5.4c-0.4-0.5-0.6-1-0.7-1.5
		l0,0c0.1,0,0.3-0.1,0.5-0.2c0.1,0,0.2-0.1,0.3-0.2c1-0.5,2.6-1.7,2.6-3.7l0,0c1.6,1.6,3.5,2.9,5.4,3.7c1.3,0.5,2.7,0.8,4.1,0.8
		s2.8-0.3,4.1-0.8c1.9-0.8,3.8-2,5.4-3.7l0,0c0,2.6,2.6,3.7,3.3,4l0,0c-0.1,0.5-0.3,1-0.7,1.5C-335,290.1-339.9,293.2-345.6,293.2z"
		/>
</g>
<g id="Layer_1_1_">
	<g id="XMLID_56_">
		<polygon id="XMLID_1_" class="st1" points="-292.8,331.4 -345.8,331.4 -337.8,306.4 -284.9,306.4 		"/>
		<polygon id="XMLID_84_" class="st2" points="-345.8,331.4 -405.9,331.4 -398,306.4 -337.8,306.4 		"/>
		<path id="XMLID_74_" class="st3" d="M-347.8,319.1c-0.6,2-1.5,3.5-2.7,4.5c-1.2,1.1-2.9,1.6-5,1.6c-2.2,0-3.5-0.5-4.1-1.6
			c-0.5-1.1-0.5-2.6,0.1-4.5c0.6-2,1.5-3.5,2.7-4.6c1.2-1.1,2.9-1.6,5-1.6s3.5,0.5,4.1,1.6C-347.2,315.6-347.2,317.1-347.8,319.1
			 M-354.9,323.4c1,0,1.8-0.4,2.3-1.1s1-1.8,1.4-3.2c0.4-1.5,0.6-2.5,0.5-3.2s-0.6-1.1-1.6-1.1s-1.8,0.4-2.3,1.1s-1,1.8-1.4,3.2
			s-0.6,2.4-0.5,3.2C-356.5,323-355.9,323.4-354.9,323.4z M-360.1,319.1c-0.6,2-1.5,3.5-2.7,4.5c-1.2,1.1-2.9,1.6-5,1.6
			c-2.2,0-3.5-0.5-4.1-1.6c-0.5-1.1-0.5-2.6,0.1-4.5c0.6-2,1.5-3.5,2.7-4.6c1.2-1.1,2.9-1.6,5-1.6c2.2,0,3.5,0.5,4.1,1.6
			C-359.5,315.6-359.5,317.1-360.1,319.1z M-367.2,323.4c1,0,1.8-0.4,2.3-1.1s1-1.8,1.4-3.2c0.4-1.5,0.6-2.5,0.5-3.2
			s-0.6-1.1-1.6-1.1s-1.8,0.4-2.3,1.1s-1,1.8-1.4,3.2s-0.6,2.4-0.5,3.2C-368.8,323-368.2,323.4-367.2,323.4z M-377.9,317.9
			c0.7,0,1.2-0.1,1.7-0.4s0.8-0.6,0.9-1.1c0.2-0.5,0.1-0.9-0.2-1.1c-0.3-0.3-0.8-0.4-1.5-0.4s-1.2,0.1-1.7,0.4s-0.8,0.6-0.9,1.1
			s-0.1,0.8,0.2,1.1C-379.1,317.8-378.6,317.9-377.9,317.9z M-381.5,318.6c-0.7-0.4-1.1-0.8-1.2-1.3s-0.1-0.9,0-1.3
			c0.3-0.9,0.9-1.6,2.1-2.2c1.1-0.6,2.5-0.9,4.2-0.9s2.9,0.3,3.7,0.9c0.8,0.6,1,1.3,0.7,2.2c-0.1,0.4-0.4,0.8-0.8,1.3
			s-1,0.8-1.9,1.2c0.7,0.3,1.2,0.8,1.5,1.3s0.3,1.1,0.1,1.8c-0.3,1-1.1,1.8-2.4,2.5s-2.9,1.1-4.8,1.1s-3.2-0.4-4-1.1s-1-1.5-0.7-2.5
			c0.2-0.7,0.6-1.3,1.2-1.8C-383.2,319.3-382.4,318.9-381.5,318.6z M-379.6,323.4c0.8,0,1.4-0.2,1.9-0.5s0.9-0.8,1.1-1.4
			c0.2-0.6,0.1-1.1-0.2-1.4c-0.4-0.3-0.9-0.5-1.6-0.5s-1.4,0.2-1.9,0.5s-0.9,0.8-1.1,1.4c-0.2,0.6-0.1,1.1,0.2,1.4
			S-380.3,323.4-379.6,323.4z M-389.5,325.3l0.7-2.7h3.6l-0.7,2.7H-389.5z M-391.8,316.6h-4l0.5-1.5c1.1,0,1.8-0.1,2.3-0.1
			c0.7-0.1,1.3-0.3,1.8-0.6c0.4-0.2,0.7-0.5,0.9-0.8c0.2-0.2,0.2-0.5,0.3-0.5h2.8l-3.6,12.1h-3.4L-391.8,316.6z"/>
		<g id="XMLID_58_">
			<path id="XMLID_70_" class="st3" d="M-311.2,315h-3.2l-2.4,7.5h3.3c1.7,0,3-0.5,4.1-1.6c0.6-0.6,1-1.3,1.2-2.2
				c0.4-1.2,0.4-2.1,0-2.8C-308.4,315.3-309.5,315-311.2,315 M-330.4,322.3l6-9.5h5.1l-3.6,11.8h-3.3l2.5-8l0.3-0.9l0.3-1.1l-6.3,10
				h-3.5l-0.2-10l-0.3,1l-0.3,0.9l-2.5,8.1h-3.3l3.6-11.8h5.2L-330.4,322.3z M-307.3,313.1c1.1,0.3,1.9,0.8,2.5,1.5
				c0.4,0.6,0.6,1.2,0.6,1.9s-0.1,1.4-0.3,2c-0.5,1.6-1.3,2.9-2.6,4c-1.7,1.5-3.8,2.2-6.4,2.2h-7.4l3.6-11.8h7.4
				C-308.8,312.9-307.9,313-307.3,313.1z"/>
			<g id="XMLID_59_">
				<g id="XMLID_65_">
					<path id="XMLID_68_" class="st4" d="M-302,313.1h-0.7l0.1-0.3h1.7l-0.1,0.3h-0.6l-0.5,1.9h-0.3L-302,313.1z"/>
					<path id="XMLID_66_" class="st4" d="M-300.3,312.9h0.4l0.2,1.6l0,0l1.1-1.6h0.5l-0.5,2.2h-0.3l0.5-1.9l0,0l-1.1,1.9h-0.3
						l-0.2-1.9l0,0l-0.4,1.9h-0.3L-300.3,312.9z"/>
				</g>
				<g id="XMLID_60_">
					<path id="XMLID_63_" class="st4" d="M-302,313.1h-0.7l0.1-0.3h1.7l-0.1,0.3h-0.6l-0.5,1.9h-0.3L-302,313.1z"/>
					<path id="XMLID_61_" class="st4" d="M-300.3,312.9h0.4l0.2,1.6l0,0l1.1-1.6h0.5l-0.5,2.2h-0.3l0.5-1.9l0,0l-1.1,1.9h-0.3
						l-0.2-1.9l0,0l-0.4,1.9h-0.3L-300.3,312.9z"/>
				</g>
			</g>
		</g>
		<path id="XMLID_57_" class="st2" d="M-403,331.5"/>
	</g>
</g>
<g>
	<circle cx="-352" cy="282" r="4.7"/>
	<g>
		<path d="M-353.1,282c-10.7-5.3-13.1-17.2-13.1-20.9c0-11.6,9.4-21.1,21.1-21.1c11.6,0,21.1,9.4,21.1,21.1c0,1.5-0.2,3.1-0.5,4.7
			l-2.2-0.5c0.3-1.4,0.5-2.8,0.5-4.2c0-10.4-8.4-18.8-18.8-18.8c-10.4,0-18.8,8.4-18.8,18.8c0,3.4,2.2,14.1,11.8,18.9L-353.1,282z"
			/>
	</g>
	<path d="M-318.3,260.7c0-4.7-4.2-8.4-9.3-8.4v16.9C-322.5,269.2-318.3,265.4-318.3,260.7z"/>
	<path d="M-372.3,260.7c0-4.7,4.2-8.4,9.3-8.4v16.9C-368.1,269.2-372.3,265.4-372.3,260.7z"/>
</g>
</svg>
