<?xml version="1.0" encoding="utf-8"?>
<!-- Generator: Adobe Illustrator 19.1.0, SVG Export Plug-In . SVG Version: 6.00 Build 0)  -->
<svg version="1.1" id="Layer_1" xmlns="http://www.w3.org/2000/svg" xmlns:xlink="http://www.w3.org/1999/xlink" x="0px" y="0px"
	 viewBox="-464.7 314.3 133.2 112.3" style="enable-background:new -464.7 314.3 133.2 112.3;" xml:space="preserve">
<style type="text/css">
	.st0{fill:#265BAA;}
	.st1{fill:#EC2227;}
	.st2{fill:#FFFFFF;}
	.st3{fill:#9BDBF2;}
</style>
<g>
	
		<image style="overflow:visible;opacity:0.15;enable-background:new    ;" width="102" height="102" xlink:href="39FD35EA.png"  transform="matrix(1 0 0 1 -447.504 319.3333)">
	</image>
	<g>
		<g>
			<path class="st0" d="M-365.3,392.8c-3.9-13.3-11-13.7-12.5-14.1c-0.2,0-0.4-0.1-0.5-0.1c-4.7-4.3-1.5-22.3-1.5-22.3
				c0-27.4-18.5-24.7-18.5-24.7c-0.2,0-0.5,0-0.7,0s-0.4,0-0.7,0c0,0-18.5-2.7-18.5,24.7c0,0,3.2,18-1.5,22.3
				c-0.2,0-0.4,0.1-0.5,0.1c-1.5,0.4-8.7,0.8-12.5,14.1c-0.5,1.8-0.3,3.8,0.5,5.4c3.2,6,19.8,7.8,33.2,7.8c13.4,0,30.1-1.8,33.2-7.8
				C-364.9,396.6-364.7,394.6-365.3,392.8z M-384.3,355.2c0.1,0,0.1,0,0.2,0.1c0.7,0.3,1,1.9,0.7,3.8c-0.3,1.4-0.8,2.6-1.4,3.1
				c-0.2,0.2-0.5,0.3-0.7,0.3c-0.1,0-0.2-0.1-0.4-0.2c-1.3,4-3.8,8.1-6.9,10.5c-1.8,1.4-3.9,2.3-6,2.3c-2.2,0-4.2-0.9-6.1-2.3
				c-3.1-2.4-5.6-6.4-6.9-10.5c-0.1,0.1-0.2,0.2-0.4,0.2c-0.3,0-0.6-0.1-0.8-0.4c-0.5-0.5-1-1.7-1.3-3c-0.3-1.7-0.1-3.3,0.6-3.7
				c0.1-0.1,0.2-0.1,0.3-0.1c0.2,0,0.5,0,0.7,0.2l0,0l0,0c0,0,0,0,0-0.1c0.1-0.8,1.1-9.3,7.5-8.7l19.5,10 M-387,379.2
				c-1.7,2.1-6.4,5.2-11.9,5.2c-5.6,0-10.3-3.1-11.9-5.2c-0.4-0.5-0.6-0.9-0.6-1.4l0,0c0.1,0,0.3-0.1,0.5-0.2c0.1,0,0.2-0.1,0.3-0.2
				c1-0.5,2.5-1.6,2.5-3.6l0,0c1.6,1.6,3.4,2.8,5.3,3.6c1.3,0.5,2.6,0.8,4,0.8s2.7-0.3,4-0.8c1.9-0.7,3.6-2,5.2-3.6l0,0
				c0,2.5,2.6,3.6,3.2,3.9l0,0C-386.5,378.2-386.7,378.7-387,379.2z"/>
			<path class="st0" d="M-398.2,320.6c-26.3,0-47.6,21.3-47.6,47.6s21.3,47.6,47.6,47.6s47.6-21.3,47.6-47.6
				S-371.9,320.6-398.2,320.6z M-398.8,408.7c-23.8,0-43.1-19.3-43.1-43.1c0-23.8,19.3-43.1,43.1-43.1s43.1,19.3,43.1,43.1
				C-355.6,389.4-374.9,408.7-398.8,408.7z"/>
		</g>
	</g>
</g>
<g id="Layer_1_1_">
	<g id="XMLID_56_">
		<polygon id="XMLID_1_" class="st0" points="-345.6,423.8 -398.6,423.8 -390.6,398.8 -337.7,398.8 		"/>
		<polygon id="XMLID_84_" class="st1" points="-398.6,423.8 -458.7,423.8 -450.8,398.8 -390.6,398.8 		"/>
		<path id="XMLID_74_" class="st2" d="M-400.6,411.5c-0.6,2-1.5,3.5-2.7,4.5c-1.2,1.1-2.9,1.6-5,1.6c-2.2,0-3.5-0.5-4.1-1.6
			c-0.5-1.1-0.5-2.6,0.1-4.5c0.6-2,1.5-3.5,2.7-4.6s2.9-1.6,5-1.6s3.5,0.5,4.1,1.6C-400,408-400,409.5-400.6,411.5 M-407.7,415.8
			c1,0,1.8-0.4,2.3-1.1s1-1.8,1.4-3.2c0.4-1.5,0.6-2.5,0.5-3.2s-0.6-1.1-1.6-1.1s-1.8,0.4-2.3,1.1s-1,1.8-1.4,3.2
			c-0.4,1.4-0.6,2.4-0.5,3.2C-409.3,415.4-408.7,415.8-407.7,415.8z M-412.9,411.5c-0.6,2-1.5,3.5-2.7,4.5c-1.2,1.1-2.9,1.6-5,1.6
			c-2.2,0-3.5-0.5-4.1-1.6c-0.5-1.1-0.5-2.6,0.1-4.5c0.6-2,1.5-3.5,2.7-4.6s2.9-1.6,5-1.6c2.2,0,3.5,0.5,4.1,1.6
			C-412.3,408-412.3,409.5-412.9,411.5z M-420,415.8c1,0,1.8-0.4,2.3-1.1s1-1.8,1.4-3.2c0.4-1.5,0.6-2.5,0.5-3.2s-0.6-1.1-1.6-1.1
			s-1.8,0.4-2.3,1.1s-1,1.8-1.4,3.2c-0.4,1.4-0.6,2.4-0.5,3.2C-421.6,415.4-421,415.8-420,415.8z M-430.7,410.3
			c0.7,0,1.2-0.1,1.7-0.4s0.8-0.6,0.9-1.1c0.2-0.5,0.1-0.9-0.2-1.1c-0.3-0.3-0.8-0.4-1.5-0.4s-1.2,0.1-1.7,0.4s-0.8,0.6-0.9,1.1
			s-0.1,0.8,0.2,1.1C-431.9,410.2-431.4,410.3-430.7,410.3z M-434.3,411c-0.7-0.4-1.1-0.8-1.2-1.3s-0.1-0.9,0-1.3
			c0.3-0.9,0.9-1.6,2.1-2.2c1.1-0.6,2.5-0.9,4.2-0.9s2.9,0.3,3.7,0.9s1,1.3,0.7,2.2c-0.1,0.4-0.4,0.8-0.8,1.3s-1,0.8-1.9,1.2
			c0.7,0.3,1.2,0.8,1.5,1.3s0.3,1.1,0.1,1.8c-0.3,1-1.1,1.8-2.4,2.5s-2.9,1.1-4.8,1.1s-3.2-0.4-4-1.1s-1-1.5-0.7-2.5
			c0.2-0.7,0.6-1.3,1.2-1.8C-436,411.7-435.2,411.3-434.3,411z M-432.4,415.8c0.8,0,1.4-0.2,1.9-0.5s0.9-0.8,1.1-1.4
			s0.1-1.1-0.2-1.4c-0.4-0.3-0.9-0.5-1.6-0.5s-1.4,0.2-1.9,0.5s-0.9,0.8-1.1,1.4s-0.1,1.1,0.2,1.4S-433.1,415.8-432.4,415.8z
			 M-442.3,417.7l0.7-2.7h3.6l-0.7,2.7H-442.3z M-444.6,409h-4l0.5-1.5c1.1,0,1.8-0.1,2.3-0.1c0.7-0.1,1.3-0.3,1.8-0.6
			c0.4-0.2,0.7-0.5,0.9-0.8c0.2-0.2,0.2-0.5,0.3-0.5h2.8l-3.6,12.1h-3.4L-444.6,409z"/>
		<g id="XMLID_58_">
			<path id="XMLID_70_" class="st2" d="M-364,407.4h-3.2l-2.4,7.5h3.3c1.7,0,3-0.5,4.1-1.6c0.6-0.6,1-1.3,1.2-2.2
				c0.4-1.2,0.4-2.1,0-2.8C-361.2,407.7-362.3,407.4-364,407.4 M-383.2,414.7l6-9.5h5.1l-3.6,11.8h-3.3l2.5-8l0.3-0.9l0.3-1.1
				l-6.3,10h-3.5l-0.2-10l-0.3,1l-0.3,0.9l-2.5,8.1h-3.3l3.6-11.8h5.2L-383.2,414.7z M-360.1,405.5c1.1,0.3,1.9,0.8,2.5,1.5
				c0.4,0.6,0.6,1.2,0.6,1.9s-0.1,1.4-0.3,2c-0.5,1.6-1.3,2.9-2.6,4c-1.7,1.5-3.8,2.2-6.4,2.2h-7.4l3.6-11.8h7.4
				C-361.6,405.3-360.7,405.4-360.1,405.5z"/>
			<g id="XMLID_59_">
				<g id="XMLID_65_">
					<path id="XMLID_68_" class="st3" d="M-354.8,405.5h-0.7l0.1-0.3h1.7l-0.1,0.3h-0.6l-0.5,1.9h-0.3L-354.8,405.5z"/>
					<path id="XMLID_66_" class="st3" d="M-353.1,405.3h0.4l0.2,1.6l0,0l1.1-1.6h0.5l-0.5,2.2h-0.3l0.5-1.9l0,0l-1.1,1.9h-0.3
						l-0.2-1.9l0,0l-0.4,1.9h-0.3L-353.1,405.3z"/>
				</g>
				<g id="XMLID_60_">
					<path id="XMLID_63_" class="st3" d="M-354.8,405.5h-0.7l0.1-0.3h1.7l-0.1,0.3h-0.6l-0.5,1.9h-0.3L-354.8,405.5z"/>
					<path id="XMLID_61_" class="st3" d="M-353.1,405.3h0.4l0.2,1.6l0,0l1.1-1.6h0.5l-0.5,2.2h-0.3l0.5-1.9l0,0l-1.1,1.9h-0.3
						l-0.2-1.9l0,0l-0.4,1.9h-0.3L-353.1,405.3z"/>
				</g>
			</g>
		</g>
		<path id="XMLID_57_" class="st1" d="M-455.8,423.9"/>
	</g>
</g>
</svg>
