<?xml version="1.0" encoding="utf-8"?>
<!-- Generator: Adobe Illustrator 19.1.0, SVG Export Plug-In . SVG Version: 6.00 Build 0)  -->
<svg version="1.1" id="Layer_1" xmlns="http://www.w3.org/2000/svg" xmlns:xlink="http://www.w3.org/1999/xlink" x="0px" y="0px"
	 viewBox="-444 328.7 133.2 112.3" style="enable-background:new -444 328.7 133.2 112.3;" xml:space="preserve">
<style type="text/css">
	.st0{fill:none;}
	.st1{fill:#106CC8;}
	.st2{fill:#EC2227;}
	.st3{fill:#FFFFFF;}
	.st4{fill:#9BDBF2;}
</style>
<g>
	<path class="st0" d="M-411.3,404.4c4-13.7,11.3-14.1,12.9-14.5c0.2,0,0.4-0.1,0.6-0.1c4.8-4.4,1.5-22.9,1.5-22.9
		c0-28.2,19.1-25.4,19.1-25.4c0.2,0,0.5,0,0.7,0c0.2,0,0.5,0,0.7,0c0,0,19.1-2.8,19.1,25.4c0,0-3.3,18.5,1.5,22.9
		c0.2,0,0.4,0.1,0.6,0.1c1.6,0.4,8.9,0.8,12.9,14.5c0,0.2,0.1,0.3,0.1,0.5c5.1-7.1,8.2-15.8,8.2-25.2c0-23.7-19.3-43-43-43
		c-23.7,0-43,19.3-43,43c0,9.4,3,18.1,8.2,25.2C-411.4,404.7-411.4,404.6-411.3,404.4z"/>
	<path class="st0" d="M-391.6,365.7c-0.1,0-0.2,0.1-0.3,0.1c-0.6,0.5-0.9,2-0.6,3.8c0.2,1.4,0.8,2.5,1.3,3.1
		c0.3,0.3,0.6,0.4,0.8,0.4c0.1,0,0.3-0.1,0.4-0.2c1.3,4.1,3.9,8.3,7.1,10.8c1.9,1.5,4,2.4,6.3,2.4c2.2,0,4.3-0.9,6.2-2.3
		c3.2-2.5,5.8-6.6,7.1-10.8c0.1,0.1,0.2,0.2,0.4,0.2c0.2,0,0.5-0.1,0.7-0.3c0.6-0.5,1.2-1.7,1.4-3.2c0.3-1.9,0-3.6-0.7-3.9
		c-0.1,0-0.1,0-0.2-0.1l-1.6,1.6l-20.1-10.3c-6.6-0.6-7.6,8.2-7.7,8.9c0,0,0,0.1,0,0.1v0C-391.1,365.8-391.3,365.7-391.6,365.7z"/>
	<path class="st0" d="M-363.7,388.9C-363.7,388.9-363.7,388.8-363.7,388.9c-0.7-0.3-3.3-1.4-3.3-4c0,0,0,0,0,0
		c-1.6,1.6-3.5,2.9-5.4,3.7c-1.3,0.5-2.7,0.8-4.1,0.8c-1.4,0-2.8-0.3-4.1-0.8c-2-0.8-3.8-2.1-5.4-3.7c0,0,0,0,0,0
		c0,2-1.5,3.2-2.6,3.7c-0.1,0.1-0.2,0.1-0.3,0.2c-0.3,0.1-0.5,0.2-0.5,0.2v0c0.1,0.5,0.3,1,0.7,1.5c1.7,2.2,6.6,5.4,12.3,5.4
		c5.7,0,10.6-3.2,12.3-5.4C-364,389.9-363.7,389.4-363.7,388.9z"/>
	<path class="st1" d="M-376.6,332.7c-25.9,0-47,21.1-47,47c0,25.9,21.1,47,47,47c25.9,0,47-21.1,47-47
		C-329.6,353.8-350.7,332.7-376.6,332.7z M-376.6,336.7c23.7,0,43,19.3,43,43c0,9.4-3,18.1-8.2,25.2c0-0.2-0.1-0.3-0.1-0.5
		c-4-13.7-11.3-14.1-12.9-14.5c-0.2,0-0.4-0.1-0.6-0.1c-4.8-4.4-1.5-22.9-1.5-22.9c0-28.2-19.1-25.4-19.1-25.4c-0.2,0-0.5,0-0.7,0
		c-0.2,0-0.5,0-0.7,0c0,0-19.1-2.8-19.1,25.4c0,0,3.3,18.5-1.5,22.9c-0.2,0-0.4,0.1-0.6,0.1c-1.6,0.4-8.9,0.8-12.9,14.5
		c0,0.2-0.1,0.3-0.1,0.5c-5.1-7.1-8.2-15.8-8.2-25.2C-419.6,356-400.3,336.7-376.6,336.7z M-390.9,365.9c0.1-0.8,1.1-9.5,7.7-8.9
		l20.1,10.3l1.6-1.6c0.1,0,0.1,0,0.2,0.1c0.7,0.3,1,2,0.7,3.9c-0.3,1.5-0.8,2.7-1.4,3.2c-0.2,0.2-0.5,0.3-0.7,0.3
		c-0.1,0-0.3-0.1-0.4-0.2c-1.3,4.2-3.9,8.3-7.1,10.8c-1.9,1.5-4,2.3-6.2,2.3c-2.2,0-4.4-0.9-6.3-2.4c-3.2-2.5-5.8-6.6-7.1-10.8
		c-0.1,0.1-0.2,0.2-0.4,0.2c-0.3,0-0.6-0.1-0.8-0.4c-0.6-0.6-1.1-1.7-1.3-3.1c-0.3-1.8-0.1-3.4,0.6-3.8c0.1-0.1,0.2-0.1,0.3-0.1
		C-391.3,365.7-391.1,365.8-390.9,365.9L-390.9,365.9C-390.9,365.9-390.9,365.9-390.9,365.9z M-376.6,395.7
		c-5.7,0-10.6-3.2-12.3-5.4c-0.4-0.5-0.6-1-0.7-1.5v0c0.1,0,0.3-0.1,0.5-0.2c0.1,0,0.2-0.1,0.3-0.2c1-0.5,2.6-1.7,2.6-3.7
		c0,0,0,0,0,0c1.6,1.6,3.5,2.9,5.4,3.7c1.3,0.5,2.7,0.8,4.1,0.8c1.4,0,2.8-0.3,4.1-0.8c1.9-0.8,3.8-2,5.4-3.7c0,0,0,0,0,0
		c0,2.6,2.6,3.7,3.3,4c0,0,0,0,0,0c-0.1,0.5-0.3,1-0.7,1.5C-366,392.6-370.9,395.7-376.6,395.7z"/>
</g>
<g id="Layer_1_1_">
	<g id="XMLID_56_">
		<polygon id="XMLID_1_" class="st1" points="-323.8,433.9 -376.8,433.9 -368.8,408.9 -315.9,408.9 		"/>
		<polygon id="XMLID_84_" class="st2" points="-376.8,433.9 -436.9,433.9 -429,408.9 -368.8,408.9 		"/>
		<path id="XMLID_74_" class="st3" d="M-378.8,421.6c-0.6,2-1.5,3.5-2.7,4.5c-1.2,1.1-2.9,1.6-5,1.6c-2.2,0-3.5-0.5-4.1-1.6
			c-0.5-1.1-0.5-2.6,0.1-4.5c0.6-2,1.5-3.5,2.7-4.6c1.2-1.1,2.9-1.6,5-1.6s3.5,0.5,4.1,1.6C-378.2,418.1-378.2,419.6-378.8,421.6
			 M-385.9,425.9c1,0,1.8-0.4,2.3-1.1s1-1.8,1.4-3.2c0.4-1.5,0.6-2.5,0.5-3.2s-0.6-1.1-1.6-1.1s-1.8,0.4-2.3,1.1s-1,1.8-1.4,3.2
			s-0.6,2.4-0.5,3.2C-387.5,425.5-386.9,425.9-385.9,425.9z M-391.1,421.6c-0.6,2-1.5,3.5-2.7,4.5c-1.2,1.1-2.9,1.6-5,1.6
			c-2.2,0-3.5-0.5-4.1-1.6c-0.5-1.1-0.5-2.6,0.1-4.5c0.6-2,1.5-3.5,2.7-4.6c1.2-1.1,2.9-1.6,5-1.6c2.2,0,3.5,0.5,4.1,1.6
			C-390.5,418.1-390.5,419.6-391.1,421.6z M-398.2,425.9c1,0,1.8-0.4,2.3-1.1s1-1.8,1.4-3.2c0.4-1.5,0.6-2.5,0.5-3.2
			s-0.6-1.1-1.6-1.1s-1.8,0.4-2.3,1.1s-1,1.8-1.4,3.2s-0.6,2.4-0.5,3.2C-399.8,425.5-399.2,425.9-398.2,425.9z M-408.9,420.4
			c0.7,0,1.2-0.1,1.7-0.4s0.8-0.6,0.9-1.1c0.2-0.5,0.1-0.9-0.2-1.1c-0.3-0.3-0.8-0.4-1.5-0.4s-1.2,0.1-1.7,0.4s-0.8,0.6-0.9,1.1
			s-0.1,0.8,0.2,1.1C-410.1,420.3-409.6,420.4-408.9,420.4z M-412.5,421.1c-0.7-0.4-1.1-0.8-1.2-1.3s-0.1-0.9,0-1.3
			c0.3-0.9,0.9-1.6,2.1-2.2c1.1-0.6,2.5-0.9,4.2-0.9s2.9,0.3,3.7,0.9c0.8,0.6,1,1.3,0.7,2.2c-0.1,0.4-0.4,0.8-0.8,1.3
			s-1,0.8-1.9,1.2c0.7,0.3,1.2,0.8,1.5,1.3s0.3,1.1,0.1,1.8c-0.3,1-1.1,1.8-2.4,2.5s-2.9,1.1-4.8,1.1s-3.2-0.4-4-1.1s-1-1.5-0.7-2.5
			c0.2-0.7,0.6-1.3,1.2-1.8C-414.2,421.8-413.4,421.4-412.5,421.1z M-410.6,425.9c0.8,0,1.4-0.2,1.9-0.5s0.9-0.8,1.1-1.4
			c0.2-0.6,0.1-1.1-0.2-1.4c-0.4-0.3-0.9-0.5-1.6-0.5s-1.4,0.2-1.9,0.5s-0.9,0.8-1.1,1.4c-0.2,0.6-0.1,1.1,0.2,1.4
			S-411.3,425.9-410.6,425.9z M-420.5,427.8l0.7-2.7h3.6l-0.7,2.7H-420.5z M-422.8,419.1h-4l0.5-1.5c1.1,0,1.8-0.1,2.3-0.1
			c0.7-0.1,1.3-0.3,1.8-0.6c0.4-0.2,0.7-0.5,0.9-0.8c0.2-0.2,0.2-0.5,0.3-0.5h2.8l-3.6,12.1h-3.4L-422.8,419.1z"/>
		<g id="XMLID_58_">
			<path id="XMLID_70_" class="st3" d="M-342.2,417.5h-3.2l-2.4,7.5h3.3c1.7,0,3-0.5,4.1-1.6c0.6-0.6,1-1.3,1.2-2.2
				c0.4-1.2,0.4-2.1,0-2.8C-339.4,417.8-340.5,417.5-342.2,417.5 M-361.4,424.8l6-9.5h5.1l-3.6,11.8h-3.3l2.5-8l0.3-0.9l0.3-1.1
				l-6.3,10h-3.5l-0.2-10l-0.3,1l-0.3,0.9l-2.5,8.1h-3.3l3.6-11.8h5.2L-361.4,424.8z M-338.3,415.6c1.1,0.3,1.9,0.8,2.5,1.5
				c0.4,0.6,0.6,1.2,0.6,1.9c0,0.7-0.1,1.4-0.3,2c-0.5,1.6-1.3,2.9-2.6,4c-1.7,1.5-3.8,2.2-6.4,2.2h-7.4l3.6-11.8h7.4
				C-339.8,415.4-338.9,415.5-338.3,415.6z"/>
			<g id="XMLID_59_">
				<g id="XMLID_65_">
					<path id="XMLID_68_" class="st4" d="M-333,415.6h-0.7l0.1-0.3h1.7l-0.1,0.3h-0.6l-0.5,1.9h-0.3L-333,415.6z"/>
					<path id="XMLID_66_" class="st4" d="M-331.3,415.4h0.4l0.2,1.6l0,0l1.1-1.6h0.5l-0.5,2.2h-0.3l0.5-1.9l0,0l-1.1,1.9h-0.3
						l-0.2-1.9l0,0l-0.4,1.9h-0.3L-331.3,415.4z"/>
				</g>
				<g id="XMLID_60_">
					<path id="XMLID_63_" class="st4" d="M-333,415.6h-0.7l0.1-0.3h1.7l-0.1,0.3h-0.6l-0.5,1.9h-0.3L-333,415.6z"/>
					<path id="XMLID_61_" class="st4" d="M-331.3,415.4h0.4l0.2,1.6l0,0l1.1-1.6h0.5l-0.5,2.2h-0.3l0.5-1.9l0,0l-1.1,1.9h-0.3
						l-0.2-1.9l0,0l-0.4,1.9h-0.3L-331.3,415.4z"/>
				</g>
			</g>
		</g>
		<path id="XMLID_57_" class="st2" d="M-434,434"/>
	</g>
</g>
</svg>
