<?xml version="1.0" encoding="utf-8"?>
<!-- Generator: Adobe Illustrator 19.1.0, SVG Export Plug-In . SVG Version: 6.00 Build 0)  -->
<svg version="1.1" id="Layer_1" xmlns="http://www.w3.org/2000/svg" xmlns:xlink="http://www.w3.org/1999/xlink" x="0px" y="0px"
	 viewBox="0 0 88.8 72.2" style="enable-background:new 0 0 88.8 72.2;" xml:space="preserve">
<style type="text/css">
	.st0{fill:none;}
	.st1{fill:#265BAA;}
	.st2{fill:#EC2227;}
	.st3{fill:#FFFFFF;}
	.st4{fill:#9BDBF2;}
</style>
<g>
	<path class="st0" d="M34.4,28.6c0.2,0.2,0.4,0.3,0.6,0.3c0.1,0,0.2-0.1,0.3-0.1c0.9,3,2.8,5.9,5.1,7.6c1.3,1,2.8,1.6,4.4,1.6
		c1.6,0,3.1-0.6,4.5-1.7c2.3-1.8,4-4.7,5-7.6c0.1,0.1,0.2,0.1,0.3,0.1c0.2,0,0.3,0,0.5-0.2c0.4-0.4,0.8-1.2,1-2.2
		c0.2-1.3,0-2.5-0.5-2.8c0,0-0.1,0-0.1,0c-0.2,0-0.3,0-0.5,0.2l0,0c0,0,0,0,0,0c0,0,0,0,0,0c0,0,0,0,0,0c-0.6-2.3-1.4-3.7-2.2-4.6
		c-0.2-0.1-0.3-0.2-0.5-0.2c0,0.3,0.4,0.9,0.4,1.4c-1.1-0.5-2.1-1.3-3.7-1.4c-0.4,0-0.7,0-1.1,0c-3.7,1.3-7.8-0.2-7.8-0.2
		c-4.6-0.4-5.4,4.4-5.4,4.9c0,0,0,0,0,0c0,0,0,0,0,0c-0.2-0.1-0.3-0.2-0.5-0.2c-0.1,0-0.1,0-0.2,0.1c-0.1,0.1-0.3,0.3-0.3,0.5
		c0,0.6-0.1,1.3-0.1,2c0,0.1,0,0.1,0,0.2C33.7,27.4,34,28.2,34.4,28.6z"/>
	<path class="st0" d="M20.4,50.9c2.8-9.6,8-10,9.1-10.2c2.2-0.5,4.9-0.3,6.3-0.7c0.2,2.1,4.2,3.7,9.1,3.7c4.9,0,8.9-1.7,9.1-3.7
		c1.4,0.4,4.1,0.2,6.3,0.7c1.1,0.3,6.3,0.6,9.1,10.2c0.1,0.4,0.2,0.8,0.2,1.2c3.6-5,5.7-11.1,5.7-17.6c0-16.7-13.6-30.4-30.4-30.4
		S14.5,17.7,14.5,34.5c0,6.6,2.1,12.7,5.7,17.6C20.2,51.7,20.3,51.3,20.4,50.9z M32.2,22C32.2,22,32.2,22,32.2,22
		C32.2,22,32.2,22,32.2,22L32.2,22c0-1,0.2-2,0.4-2.9c0.1-1.8,0.5-3.4,1.2-4.7c2-3.9,6.5-6.2,12.4-5.9c6.8,0.5,11.1,4.7,11.1,12
		c0,0.5,0,1,0,1.5c0.8,0.3,1.1,2.1,0.8,4.1c-0.3,1.9-1.1,3.3-1.9,3.6c-1,2.7-2.6,5.4-4.6,7.4c-1.2,1.2-2.5,2.1-3.9,2.7
		c-0.9,0.4-1.9,0.6-2.9,0.6c-1,0-2-0.2-2.9-0.6c-1.4-0.5-2.6-1.4-3.8-2.5c-2-2-3.7-4.7-4.7-7.5c-0.8-0.1-1.7-1.6-2-3.6
		C30.9,24,31.3,22.2,32.2,22z"/>
	<g>
		
			<image style="overflow:visible;opacity:0.35;" width="73" height="74" xlink:href="BC26A7BD.png"  transform="matrix(1 0 0 1 9.3333 -1.6667)">
		</image>
		<g>
			<g>
				<path class="st1" d="M44.9,1.3c-18.3,0-33.2,14.9-33.2,33.2c0,18.3,14.9,33.2,33.2,33.2s33.2-14.9,33.2-33.2
					C78.1,16.2,63.2,1.3,44.9,1.3z M44.9,4.1c16.7,0,30.4,13.6,30.4,30.4c0,6.6-2.1,12.7-5.7,17.6c0-0.4-0.1-0.8-0.2-1.2
					c-2.8-9.6-8-10-9.1-10.2c-2.2-0.5-4.9-0.3-6.3-0.7c-0.2,2.1-4.2,3.7-9.1,3.7C40,43.7,36,42,35.7,40c-1.4,0.4-4.1,0.2-6.3,0.7
					c-1.1,0.3-6.3,0.6-9.1,10.2c-0.1,0.4-0.2,0.8-0.2,1.2c-3.6-5-5.7-11.1-5.7-17.6C14.5,17.7,28.1,4.1,44.9,4.1z"/>
			</g>
		</g>
	</g>
	<path class="st1" d="M33.3,29.7c1,2.8,2.7,5.5,4.7,7.5c1.1,1.1,2.4,2,3.8,2.5c0.9,0.4,1.9,0.6,2.9,0.6c1,0,2-0.2,2.9-0.6
		c1.4-0.6,2.7-1.5,3.9-2.7c2-2,3.6-4.6,4.6-7.4c0.8-0.2,1.6-1.7,1.9-3.6c0.4-2,0-3.8-0.8-4.1c0-0.5,0-1,0-1.5
		c0-7.3-4.3-11.6-11.1-12c-5.9-0.4-10.4,2-12.4,5.9c-0.7,1.3-1.1,3-1.2,4.7C32.3,20,32.2,21,32.2,22h0c0,0,0,0,0,0c0,0,0,0,0,0
		c-0.9,0.2-1.3,2-0.9,4.1C31.7,28.1,32.5,29.6,33.3,29.7z M33.5,24.2c0.1-0.2,0.2-0.4,0.3-0.5c0.1,0,0.1-0.1,0.2-0.1
		c0.2,0,0.3,0,0.5,0.2c0,0,0,0,0,0c0,0,0,0,0,0c0.1-0.6,0.8-5.4,5.4-4.9c0,0,4.1,1.5,7.8,0.2c0.4,0,0.8,0,1.1,0
		c1.5,0.1,2.6,0.9,3.7,1.4c0-0.5-0.4-1-0.4-1.4c0.2,0.1,0.3,0.1,0.5,0.2c0.8,0.8,1.6,2.3,2.2,4.6c0,0,0,0,0,0c0,0,0,0,0,0
		c0,0,0,0,0,0l0,0c0.2-0.1,0.3-0.2,0.5-0.2c0,0,0.1,0,0.1,0c0.5,0.2,0.7,1.4,0.5,2.8c-0.2,1-0.6,1.9-1,2.2c-0.2,0.1-0.3,0.2-0.5,0.2
		c-0.1,0-0.2-0.1-0.3-0.1c-0.9,2.9-2.7,5.8-5,7.6c-1.3,1.1-2.9,1.7-4.5,1.7c-1.6,0-3-0.6-4.4-1.6c-2.3-1.8-4.1-4.7-5.1-7.6
		c-0.1,0.1-0.2,0.1-0.3,0.1c-0.2,0-0.4-0.1-0.6-0.3c-0.4-0.4-0.8-1.2-0.9-2.2c0-0.1,0-0.1,0-0.2C33.5,25.5,33.5,24.9,33.5,24.2z"/>
</g>
<g id="Layer_1_1_">
	<g id="XMLID_56_">
		<polygon id="XMLID_1_" class="st1" points="82.2,70.5 44.3,70.5 50,52.6 87.9,52.6 		"/>
		<polygon id="XMLID_84_" class="st2" points="44.3,70.5 1.3,70.5 6.9,52.6 50,52.6 		"/>
		<path id="XMLID_74_" class="st3" d="M42.8,61.7c-0.4,1.4-1.1,2.5-1.9,3.2C40,65.7,38.8,66,37.3,66c-1.6,0-2.5-0.4-2.9-1.1
			C34,64.1,34,63,34.5,61.7c0.4-1.4,1.1-2.5,1.9-3.3s2.1-1.1,3.6-1.1s2.5,0.4,2.9,1.1C43.3,59.2,43.3,60.2,42.8,61.7 M37.8,64.7
			c0.7,0,1.3-0.3,1.6-0.8c0.4-0.5,0.7-1.3,1-2.3c0.3-1.1,0.4-1.8,0.4-2.3c-0.1-0.5-0.4-0.8-1.1-0.8s-1.3,0.3-1.6,0.8
			c-0.4,0.5-0.7,1.3-1,2.3c-0.3,1-0.4,1.7-0.4,2.3C36.6,64.5,37,64.7,37.8,64.7z M34,61.7c-0.4,1.4-1.1,2.5-1.9,3.2
			C31.2,65.7,30,66,28.5,66c-1.6,0-2.5-0.4-2.9-1.1c-0.4-0.8-0.4-1.9,0.1-3.2c0.4-1.4,1.1-2.5,1.9-3.3s2.1-1.1,3.6-1.1
			c1.6,0,2.5,0.4,2.9,1.1C34.5,59.2,34.5,60.2,34,61.7z M29,64.7c0.7,0,1.3-0.3,1.6-0.8c0.4-0.5,0.7-1.3,1-2.3
			c0.3-1.1,0.4-1.8,0.4-2.3c-0.1-0.5-0.4-0.8-1.1-0.8c-0.7,0-1.3,0.3-1.6,0.8c-0.4,0.5-0.7,1.3-1,2.3c-0.3,1-0.4,1.7-0.4,2.3
			C27.8,64.5,28.2,64.7,29,64.7z M21.3,60.8c0.5,0,0.9-0.1,1.2-0.3c0.4-0.2,0.6-0.4,0.6-0.8c0.1-0.4,0.1-0.6-0.1-0.8
			c-0.2-0.2-0.6-0.3-1.1-0.3c-0.5,0-0.9,0.1-1.2,0.3c-0.4,0.2-0.6,0.4-0.6,0.8c-0.1,0.4-0.1,0.6,0.1,0.8
			C20.4,60.7,20.8,60.8,21.3,60.8z M18.7,61.3c-0.5-0.3-0.8-0.6-0.9-0.9c-0.1-0.4-0.1-0.6,0-0.9c0.2-0.6,0.6-1.1,1.5-1.6
			c0.8-0.4,1.8-0.6,3-0.6c1.2,0,2.1,0.2,2.6,0.6c0.6,0.4,0.7,0.9,0.5,1.6c-0.1,0.3-0.3,0.6-0.6,0.9c-0.3,0.4-0.7,0.6-1.4,0.9
			c0.5,0.2,0.9,0.6,1.1,0.9c0.2,0.4,0.2,0.8,0.1,1.3c-0.2,0.7-0.8,1.3-1.7,1.8S20.9,66,19.6,66s-2.3-0.3-2.9-0.8s-0.7-1.1-0.5-1.8
			c0.1-0.5,0.4-0.9,0.9-1.3C17.5,61.8,18.1,61.5,18.7,61.3z M20.1,64.7c0.6,0,1-0.1,1.4-0.4c0.4-0.2,0.6-0.6,0.8-1
			c0.1-0.4,0.1-0.8-0.1-1c-0.3-0.2-0.6-0.4-1.1-0.4c-0.5,0-1,0.1-1.4,0.4s-0.6,0.6-0.8,1c-0.1,0.4-0.1,0.8,0.1,1
			C19.1,64.6,19.6,64.7,20.1,64.7z M13,66.1l0.5-1.9h2.6l-0.5,1.9H13z M11.3,59.9H8.5l0.4-1.1c0.8,0,1.3-0.1,1.6-0.1
			c0.5-0.1,0.9-0.2,1.3-0.4c0.3-0.1,0.5-0.4,0.6-0.6c0.1-0.1,0.1-0.4,0.2-0.4h2L12.1,66H9.6L11.3,59.9z"/>
		<g id="XMLID_58_">
			<path id="XMLID_70_" class="st3" d="M69,58.7h-2.3L65,64.1h2.4c1.2,0,2.1-0.4,2.9-1.1c0.4-0.4,0.7-0.9,0.9-1.6
				c0.3-0.9,0.3-1.5,0-2C71,58.9,70.3,58.7,69,58.7 M55.3,64l4.3-6.8h3.7l-2.6,8.4h-2.4l1.8-5.7l0.2-0.6l0.2-0.8L56,65.6h-2.5
				l-0.1-7.2l-0.2,0.7l-0.2,0.6l-1.8,5.8h-2.4l2.6-8.4h3.7L55.3,64z M71.8,57.4c0.8,0.2,1.4,0.6,1.8,1.1c0.3,0.4,0.4,0.9,0.4,1.4
				c0,0.5-0.1,1-0.2,1.4c-0.4,1.1-0.9,2.1-1.9,2.9c-1.2,1.1-2.7,1.6-4.6,1.6h-5.3l2.6-8.4H70C70.8,57.2,71.4,57.3,71.8,57.4z"/>
			<g id="XMLID_59_">
				<g id="XMLID_65_">
					<path id="XMLID_68_" class="st4" d="M75.6,57.4h-0.5l0.1-0.2h1.2l-0.1,0.2h-0.4l-0.4,1.4h-0.2L75.6,57.4z"/>
					<path id="XMLID_66_" class="st4" d="M76.8,57.2h0.3l0.1,1.1l0,0l0.8-1.1h0.4l-0.4,1.6h-0.2l0.4-1.4l0,0l-0.8,1.4h-0.2l-0.1-1.4
						l0,0l-0.3,1.4h-0.2L76.8,57.2z"/>
				</g>
				<g id="XMLID_60_">
					<path id="XMLID_63_" class="st4" d="M75.6,57.4h-0.5l0.1-0.2h1.2l-0.1,0.2h-0.4l-0.4,1.4h-0.2L75.6,57.4z"/>
					<path id="XMLID_61_" class="st4" d="M76.8,57.2h0.3l0.1,1.1l0,0l0.8-1.1h0.4l-0.4,1.6h-0.2l0.4-1.4l0,0l-0.8,1.4h-0.2l-0.1-1.4
						l0,0l-0.3,1.4h-0.2L76.8,57.2z"/>
				</g>
			</g>
		</g>
		<path id="XMLID_57_" class="st2" d="M3.3,70.5"/>
	</g>
</g>
</svg>
