<?xml version="1.0" encoding="utf-8"?>
<!-- Generator: Adobe Illustrator 19.1.0, SVG Export Plug-In . SVG Version: 6.00 Build 0)  -->
<svg version="1.1" id="Layer_1" xmlns="http://www.w3.org/2000/svg" xmlns:xlink="http://www.w3.org/1999/xlink" x="0px" y="0px"
	 viewBox="0 0 122.7 94" style="enable-background:new 0 0 122.7 94;" xml:space="preserve">
<style type="text/css">
	.st0{fill:none;}
	.st1{fill:#EC2227;}
	.st2{fill:#106CC8;}
	.st3{fill:#FFFFFF;}
	.st4{fill:#9BDBF2;}
</style>
<g>
	<path class="st0" d="M49.7,35.9c0.2,0.2,0.4,0.3,0.6,0.3c0.1,0,0.2-0.1,0.3-0.1c0.9,3,2.8,5.9,5.1,7.6c1.3,1,2.8,1.6,4.4,1.6
		c1.6,0,3.1-0.6,4.5-1.7c2.3-1.8,4-4.7,5-7.6c0.1,0.1,0.2,0.1,0.3,0.1c0.2,0,0.3,0,0.5-0.2c0.4-0.4,0.8-1.2,1-2.2
		c0.2-1.3,0-2.5-0.5-2.8c0,0-0.1,0-0.1,0c-0.2,0-0.3,0-0.5,0.2l0,0c0,0,0,0,0,0c0,0,0,0,0,0c0,0,0,0,0,0c-0.6-2.3-1.4-3.7-2.2-4.6
		c-0.2-0.1-0.3-0.2-0.5-0.2c0,0.3,0.4,0.9,0.4,1.4c-1.1-0.5-2.1-1.3-3.7-1.4c-0.4,0-0.7,0-1.1,0c-3.7,1.3-7.8-0.2-7.8-0.2
		c-4.6-0.4-5.4,4.4-5.4,4.9c0,0,0,0,0,0c0,0,0,0,0,0c-0.2-0.1-0.3-0.2-0.5-0.2c-0.1,0-0.1,0-0.2,0.1c-0.1,0.1-0.3,0.3-0.3,0.5
		c0,0.6-0.1,1.3-0.1,2c0,0.1,0,0.1,0,0.2C49,34.7,49.3,35.5,49.7,35.9z"/>
	<path class="st0" d="M35.7,58.3c2.8-9.6,8-10,9.1-10.2c2.2-0.5,4.9-0.3,6.3-0.7c0.2,2.1,4.2,3.7,9.1,3.7c4.9,0,8.9-1.7,9.1-3.7
		c1.4,0.4,4.1,0.2,6.3,0.7c1.1,0.3,6.3,0.6,9.1,10.2c0.1,0.4,0.2,0.8,0.2,1.2c3.6-5,5.7-11.1,5.7-17.6c0-16.7-13.6-30.4-30.4-30.4
		S29.8,25.1,29.8,41.8c0,6.6,2.1,12.7,5.7,17.6C35.5,59,35.6,58.7,35.7,58.3z M47.5,29.3C47.5,29.3,47.5,29.3,47.5,29.3
		C47.6,29.3,47.6,29.3,47.5,29.3L47.5,29.3c0-1,0.2-2,0.4-2.9c0.1-1.8,0.5-3.4,1.2-4.7c2-3.9,6.5-6.2,12.4-5.9
		c6.8,0.5,11.1,4.7,11.1,12c0,0.5,0,1,0,1.5c0.8,0.3,1.1,2.1,0.8,4.1c-0.3,1.9-1.1,3.3-1.9,3.6c-1,2.7-2.6,5.4-4.6,7.4
		c-1.2,1.2-2.5,2.1-3.9,2.7C62,47.4,61,47.6,60,47.6c-1,0-2-0.2-2.9-0.6c-1.4-0.5-2.6-1.4-3.8-2.5c-2-2-3.7-4.7-4.7-7.5
		c-0.8-0.1-1.7-1.6-2-3.6C46.3,31.3,46.6,29.5,47.5,29.3z"/>
	<g>
		
			<image style="overflow:visible;opacity:0.35;" width="73" height="74" xlink:href="BAC8A586.png"  transform="matrix(1 0 0 1 24.6667 5.6667)">
		</image>
		<g>
			<path class="st1" d="M60.2,8.6C41.9,8.6,27,23.5,27,41.8C27,60.1,41.9,75,60.2,75s33.2-14.9,33.2-33.2
				C93.4,23.5,78.5,8.6,60.2,8.6z M60.2,11.5c16.7,0,30.4,13.6,30.4,30.4c0,6.6-2.1,12.7-5.7,17.6c0-0.4-0.1-0.8-0.2-1.2
				c-2.8-9.6-8-10-9.1-10.2c-2.2-0.5-4.9-0.3-6.3-0.7c-0.2,2.1-4.2,3.7-9.1,3.7c-4.9,0-8.9-1.7-9.1-3.7c-1.4,0.4-4.1,0.2-6.3,0.7
				c-1.1,0.3-6.3,0.6-9.1,10.2c-0.1,0.4-0.2,0.8-0.2,1.2c-3.6-5-5.7-11.1-5.7-17.6C29.8,25.1,43.5,11.5,60.2,11.5z"/>
		</g>
	</g>
	<path class="st1" d="M48.7,37c1,2.8,2.7,5.5,4.7,7.5c1.1,1.1,2.4,2,3.8,2.5c0.9,0.4,1.9,0.6,2.9,0.6c1,0,2-0.2,2.9-0.6
		c1.4-0.6,2.7-1.5,3.9-2.7c2-2,3.6-4.6,4.6-7.4c0.8-0.2,1.6-1.7,1.9-3.6c0.4-2,0-3.8-0.8-4.1c0-0.5,0-1,0-1.5
		c0-7.3-4.3-11.6-11.1-12c-5.9-0.4-10.4,2-12.4,5.9c-0.7,1.3-1.1,3-1.2,4.7c-0.2,0.9-0.4,1.9-0.4,2.9h0c0,0,0,0,0,0c0,0,0,0,0,0
		c-0.9,0.2-1.3,2-0.9,4.1C47,35.4,47.9,36.9,48.7,37z M48.9,31.6c0.1-0.2,0.2-0.4,0.3-0.5c0.1,0,0.1-0.1,0.2-0.1
		c0.2,0,0.3,0,0.5,0.2c0,0,0,0,0,0c0,0,0,0,0,0c0.1-0.6,0.8-5.4,5.4-4.9c0,0,4.1,1.5,7.8,0.2c0.4,0,0.8,0,1.1,0
		c1.5,0.1,2.6,0.9,3.7,1.4c0-0.5-0.4-1-0.4-1.4c0.2,0.1,0.3,0.1,0.5,0.2c0.8,0.8,1.6,2.3,2.2,4.6c0,0,0,0,0,0c0,0,0,0,0,0
		c0,0,0,0,0,0l0,0c0.2-0.1,0.3-0.2,0.5-0.2c0,0,0.1,0,0.1,0c0.5,0.2,0.7,1.4,0.5,2.8c-0.2,1-0.6,1.9-1,2.2c-0.2,0.1-0.3,0.2-0.5,0.2
		c-0.1,0-0.2-0.1-0.3-0.1c-0.9,2.9-2.7,5.8-5,7.6c-1.3,1.1-2.9,1.7-4.5,1.7c-1.6,0-3-0.6-4.4-1.6c-2.3-1.8-4.1-4.7-5.1-7.6
		c-0.1,0.1-0.2,0.1-0.3,0.1c-0.2,0-0.4-0.1-0.6-0.3c-0.4-0.4-0.8-1.2-0.9-2.2c0-0.1,0-0.1,0-0.2C48.8,32.9,48.8,32.2,48.9,31.6z"/>
</g>
<g id="Layer_1_1_">
	<g id="XMLID_56_">
		<polygon id="XMLID_1_" class="st2" points="97.5,77.8 59.6,77.8 65.3,59.9 103.2,59.9 		"/>
		<polygon id="XMLID_84_" class="st1" points="59.6,77.8 16.6,77.8 22.2,59.9 65.3,59.9 		"/>
		<path id="XMLID_74_" class="st3" d="M58.2,69c-0.4,1.4-1.1,2.5-1.9,3.2c-0.9,0.8-2.1,1.1-3.6,1.1c-1.6,0-2.5-0.4-2.9-1.1
			c-0.4-0.8-0.4-1.9,0.1-3.2c0.4-1.4,1.1-2.5,1.9-3.3c0.9-0.8,2.1-1.1,3.6-1.1s2.5,0.4,2.9,1.1C58.6,66.5,58.6,67.6,58.2,69
			 M53.1,72.1c0.7,0,1.3-0.3,1.6-0.8c0.4-0.5,0.7-1.3,1-2.3c0.3-1.1,0.4-1.8,0.4-2.3s-0.4-0.8-1.1-0.8s-1.3,0.3-1.6,0.8
			c-0.4,0.5-0.7,1.3-1,2.3c-0.3,1-0.4,1.7-0.4,2.3C51.9,71.8,52.4,72.1,53.1,72.1z M49.4,69c-0.4,1.4-1.1,2.5-1.9,3.2
			c-0.9,0.8-2.1,1.1-3.6,1.1c-1.6,0-2.5-0.4-2.9-1.1c-0.4-0.8-0.4-1.9,0.1-3.2c0.4-1.4,1.1-2.5,1.9-3.3s2.1-1.1,3.6-1.1
			c1.6,0,2.5,0.4,2.9,1.1C49.8,66.5,49.8,67.6,49.4,69z M44.3,72.1c0.7,0,1.3-0.3,1.6-0.8c0.4-0.5,0.7-1.3,1-2.3
			c0.3-1.1,0.4-1.8,0.4-2.3s-0.4-0.8-1.1-0.8c-0.7,0-1.3,0.3-1.6,0.8c-0.4,0.5-0.7,1.3-1,2.3c-0.3,1-0.4,1.7-0.4,2.3
			C43.1,71.8,43.6,72.1,44.3,72.1z M36.6,68.1c0.5,0,0.9-0.1,1.2-0.3c0.4-0.2,0.6-0.4,0.6-0.8c0.1-0.4,0.1-0.6-0.1-0.8
			c-0.2-0.2-0.6-0.3-1.1-0.3s-0.9,0.1-1.2,0.3c-0.4,0.2-0.6,0.4-0.6,0.8c-0.1,0.4-0.1,0.6,0.1,0.8C35.8,68.1,36.1,68.1,36.6,68.1z
			 M34.1,68.6c-0.5-0.3-0.8-0.6-0.9-0.9c-0.1-0.4-0.1-0.6,0-0.9c0.2-0.6,0.6-1.1,1.5-1.6c0.8-0.4,1.8-0.6,3-0.6
			c1.2,0,2.1,0.2,2.6,0.6c0.6,0.4,0.7,0.9,0.5,1.6c-0.1,0.3-0.3,0.6-0.6,0.9c-0.3,0.4-0.7,0.6-1.4,0.9c0.5,0.2,0.9,0.6,1.1,0.9
			c0.2,0.4,0.2,0.8,0.1,1.3c-0.2,0.7-0.8,1.3-1.7,1.8c-0.9,0.5-2.1,0.8-3.4,0.8c-1.4,0-2.3-0.3-2.9-0.8c-0.6-0.5-0.7-1.1-0.5-1.8
			c0.1-0.5,0.4-0.9,0.9-1.3C32.8,69.1,33.4,68.9,34.1,68.6z M35.4,72.1c0.6,0,1-0.1,1.4-0.4c0.4-0.2,0.6-0.6,0.8-1
			c0.1-0.4,0.1-0.8-0.1-1c-0.3-0.2-0.6-0.4-1.1-0.4c-0.5,0-1,0.1-1.4,0.4c-0.4,0.2-0.6,0.6-0.8,1c-0.1,0.4-0.1,0.8,0.1,1
			C34.5,71.9,34.9,72.1,35.4,72.1z M28.3,73.4l0.5-1.9h2.6l-0.5,1.9H28.3z M26.7,67.2h-2.9l0.4-1.1c0.8,0,1.3-0.1,1.6-0.1
			c0.5-0.1,0.9-0.2,1.3-0.4c0.3-0.1,0.5-0.4,0.6-0.6c0.1-0.1,0.1-0.4,0.2-0.4h2l-2.6,8.7H25L26.7,67.2z"/>
		<g id="XMLID_58_">
			<path id="XMLID_70_" class="st3" d="M84.4,66.1h-2.3l-1.7,5.4h2.4c1.2,0,2.1-0.4,2.9-1.1c0.4-0.4,0.7-0.9,0.9-1.6
				c0.3-0.9,0.3-1.5,0-2C86.4,66.3,85.6,66.1,84.4,66.1 M70.6,71.3l4.3-6.8h3.7L76,72.9h-2.4l1.8-5.7l0.2-0.6l0.2-0.8l-4.5,7.2h-2.5
				l-0.1-7.2l-0.2,0.7l-0.2,0.6l-1.8,5.8h-2.4l2.6-8.4h3.7L70.6,71.3z M87.2,64.7c0.8,0.2,1.4,0.6,1.8,1.1c0.3,0.4,0.4,0.9,0.4,1.4
				c0,0.5-0.1,1-0.2,1.4c-0.4,1.1-0.9,2.1-1.9,2.9c-1.2,1.1-2.7,1.6-4.6,1.6h-5.3l2.6-8.4h5.3C86.1,64.6,86.7,64.6,87.2,64.7z"/>
			<g id="XMLID_59_">
				<g id="XMLID_65_">
					<path id="XMLID_68_" class="st4" d="M91,64.7h-0.5l0.1-0.2h1.2l-0.1,0.2h-0.4l-0.4,1.4h-0.2L91,64.7z"/>
					<path id="XMLID_66_" class="st4" d="M92.2,64.6h0.3l0.1,1.1l0,0l0.8-1.1h0.4l-0.4,1.6h-0.2l0.4-1.4l0,0l-0.8,1.4h-0.2l-0.1-1.4
						l0,0l-0.3,1.4h-0.2L92.2,64.6z"/>
				</g>
				<g id="XMLID_60_">
					<path id="XMLID_63_" class="st4" d="M91,64.7h-0.5l0.1-0.2h1.2l-0.1,0.2h-0.4l-0.4,1.4h-0.2L91,64.7z"/>
					<path id="XMLID_61_" class="st4" d="M92.2,64.6h0.3l0.1,1.1l0,0l0.8-1.1h0.4l-0.4,1.6h-0.2l0.4-1.4l0,0l-0.8,1.4h-0.2l-0.1-1.4
						l0,0l-0.3,1.4h-0.2L92.2,64.6z"/>
				</g>
			</g>
		</g>
		<path id="XMLID_57_" class="st1" d="M18.7,77.9"/>
	</g>
</g>
</svg>
