<?xml version="1.0" encoding="utf-8"?>
<!-- Generator: Adobe Illustrator 19.1.0, SVG Export Plug-In . SVG Version: 6.00 Build 0)  -->
<svg version="1.1" id="Layer_1" xmlns="http://www.w3.org/2000/svg" xmlns:xlink="http://www.w3.org/1999/xlink" x="0px" y="0px"
	 viewBox="-461 322 100 125" style="enable-background:new -461 322 100 125;" xml:space="preserve">
<style type="text/css">
	.st0{fill:none;}
	.st1{fill:#265BAA;}
	.st2{fill:#EC2227;}
	.st3{fill:#FFFFFF;}
	.st4{fill:#9BDBF2;}
</style>
<g>
	<path class="st0" d="M-390.3,399.1L-390.3,399.1c-0.1-1.2-0.4-2.3-0.8-3.4c-0.9-2.3-2.3-4-4-4.9c0-0.1,0-0.1,0-0.2l0,0
		c-0.7-0.3-3.3-1.4-3.3-4l0,0c-1.6,1.6-3.5,2.9-5.4,3.7c-1.3,0.5-2.7,0.8-4.1,0.8s-2.8-0.3-4.1-0.8c-2-0.8-3.8-2.1-5.4-3.7l0,0
		c0,0.8-0.2,1.4-0.6,2c-2.2,0.1-4.3,1.3-5.9,3.5c-1.4,1.8-2.3,4.1-2.5,6.1c-0.7,0.2-1.2,0.8-1.4,1.6c-0.8,0.3-1.5,0.9-2.2,1.5
		c-1.1,1.1-2.2,2.6-3,4.4c-0.2,0.3-0.1,0.7,0,1c-0.9,2.1-1.4,4.4-1.4,6.4c0,2.1,0.1,3.3,0.6,4.1c0.5,0.7,1.2,1.1,2.2,1.2
		c0.2,0.2,0.4,0.3,0.7,0.3h2c0.5,0,1-0.4,1-1l0,0c0-0.5-0.4-1-1-1h-2c-0.2,0-0.4,0.1-0.5,0.2c-0.7-0.1-1-0.3-1.1-0.5
		c-0.3-0.5-0.4-1.6-0.4-3.4s0.4-3.9,1.2-5.8c0.4-0.1,0.7-0.3,0.9-0.7c1.4-3.1,3.4-5,5.2-5c1.8,0,3.7,1.8,5.1,4.8
		c0.2,0.3,0.4,0.5,0.7,0.6c0.8,2,1.3,4.2,1.3,6.1c0,1.8-0.1,2.8-0.4,3.4c-0.1,0.2-0.4,0.4-1,0.5c-0.1-0.1-0.3-0.1-0.5-0.1h-2
		c-0.5,0-1,0.4-1,1l0,0c0,0.5,0.4,1,1,1h2c0.3,0,0.6-0.1,0.7-0.4c2.4-0.4,2.6-1.9,2.6-5.3c0-2-0.5-4.4-1.4-6.6
		c0.2-0.3,0.3-0.8,0.1-1.2c-1.4-2.9-3.2-4.9-5.2-5.7c-0.2-0.7-0.7-1.3-1.4-1.5c0.2-2.4,1.9-5.5,4.1-7.1c0.1,0.4,0.3,0.8,0.6,1.1
		c1.7,2.2,6.6,5.4,12.3,5.4c5.7,0,10.5-3.2,12.3-5.4c2.3,1.1,3.7,4.1,3.9,6.9c-1.4,0.2-2.6,1.1-3,2.5c-0.6,1.9,0.5,3.9,2.4,4.5
		s3.9-0.5,4.5-2.4C-387.3,401.7-388.4,399.7-390.3,399.1z M-390,403c-0.2,0.8-1,1.2-1.8,0.9c-0.7-0.2-1.2-1-0.9-1.8
		c0.1-0.5,0.5-0.8,0.9-0.9c0.3-0.1,0.6-0.1,0.9,0c0.2,0.1,0.4,0.2,0.5,0.3C-390,401.9-389.9,402.5-390,403z"/>
	<path class="st0" d="M-423,367.5c-0.1,0-0.2,0.1-0.3,0.1c-0.6,0.5-0.9,2-0.6,3.8c0.2,1.4,0.8,2.5,1.3,3.1c0.3,0.3,0.6,0.4,0.8,0.4
		c0.1,0,0.3-0.1,0.4-0.2c1.3,4.1,3.9,8.3,7.1,10.8c1.9,1.5,4,2.4,6.3,2.4c2.2,0,4.3-0.9,6.2-2.3c3.2-2.5,5.8-6.6,7.1-10.8
		c0.1,0.1,0.2,0.2,0.4,0.2c0.2,0,0.5-0.1,0.7-0.3c0.6-0.5,1.2-1.7,1.4-3.2c0.3-1.9,0-3.6-0.7-3.9c-0.1,0-0.1,0-0.2-0.1l-1.6,1.6
		l-20.1-10.3c-6.6-0.6-7.6,8.2-7.7,8.9v0.1l0,0C-422.5,367.5-422.7,367.4-423,367.5z"/>
	<path class="st0" d="M-408,338.5c-23.7,0-43,19.3-43,43c0,9.4,3,18.1,8.2,25.2c0-0.2,0.1-0.3,0.1-0.5c4-13.7,11.3-14.1,12.9-14.5
		c0.2,0,0.4-0.1,0.6-0.1c4.8-4.4,1.5-22.9,1.5-22.9c0-28.2,19.1-25.4,19.1-25.4c0.2,0,0.5,0,0.7,0s0.5,0,0.7,0
		c0,0,19.1-2.8,19.1,25.4c0,0-3.3,18.5,1.5,22.9c0.2,0,0.4,0.1,0.6,0.1c1.6,0.4,8.9,0.8,12.9,14.5c0,0.2,0.1,0.3,0.1,0.5
		c5.1-7.1,8.2-15.8,8.2-25.2C-365,357.7-384.3,338.5-408,338.5z"/>
	<path class="st1" d="M-408,334.5c-25.9,0-47,21.1-47,47s21.1,47,47,47s47-21.1,47-47C-361,355.5-382.1,334.5-408,334.5z
		 M-387.9,403.6c-0.6,1.9-2.6,3-4.5,2.4s-3-2.6-2.4-4.5c0.4-1.4,1.6-2.3,3-2.5c-0.3-2.8-1.6-5.8-3.9-6.9c-1.7,2.2-6.6,5.4-12.3,5.4
		c-5.7,0-10.6-3.2-12.3-5.4c-0.3-0.4-0.5-0.7-0.6-1.1c-2.3,1.6-3.9,4.7-4.1,7.1c0.6,0.2,1.1,0.8,1.4,1.5c2,0.8,3.8,2.8,5.2,5.7
		c0.2,0.4,0.1,0.8-0.1,1.2c0.9,2.2,1.4,4.6,1.4,6.6c0,3.4-0.2,4.9-2.6,5.3c-0.2,0.2-0.4,0.4-0.7,0.4h-2c-0.5,0-1-0.4-1-1l0,0
		c0-0.5,0.4-1,1-1h2c0.2,0,0.4,0.1,0.5,0.1c0.6-0.1,0.9-0.3,1-0.5c0.3-0.5,0.4-1.6,0.4-3.4c0-1.9-0.5-4.1-1.3-6.1
		c-0.3-0.1-0.6-0.3-0.7-0.6c-1.4-3-3.3-4.8-5.1-4.8c-1.8,0-3.8,1.9-5.2,5c-0.2,0.4-0.5,0.6-0.9,0.7c-0.8,1.9-1.2,4-1.2,5.8
		c0,1.7,0.1,2.8,0.4,3.4c0.2,0.3,0.4,0.4,1.1,0.5c0.2-0.1,0.3-0.2,0.5-0.2h2c0.5,0,1,0.4,1,1l0,0c0,0.5-0.4,1-1,1h-2
		c-0.3,0-0.5-0.1-0.7-0.3c-1-0.1-1.7-0.5-2.2-1.2c-0.5-0.8-0.6-2-0.6-4.1c0-2,0.5-4.3,1.4-6.4c-0.2-0.3-0.2-0.7,0-1
		c0.8-1.8,1.9-3.3,3-4.4c0.7-0.7,1.5-1.2,2.2-1.5c0.2-0.8,0.7-1.3,1.4-1.6c0.1-2,1.1-4.3,2.5-6.1c1.7-2.2,3.8-3.4,5.9-3.5
		c0.3-0.5,0.6-1.2,0.6-2l0,0c1.6,1.6,3.5,2.9,5.4,3.7c1.3,0.5,2.7,0.8,4.1,0.8s2.8-0.3,4.1-0.8c1.9-0.8,3.8-2,5.4-3.7l0,0
		c0,2.6,2.6,3.7,3.3,4l0,0c0,0.1,0,0.1,0,0.2c1.8,0.8,3.2,2.6,4,4.9c0.4,1.1,0.7,2.3,0.7,3.4l0,0
		C-388.4,399.7-387.3,401.7-387.9,403.6z M-422.3,367.6c0.1-0.8,1.1-9.5,7.7-8.9l20.1,10.3l1.6-1.6c0.1,0,0.1,0,0.2,0.1
		c0.7,0.3,1,2,0.7,3.9c-0.3,1.5-0.8,2.7-1.4,3.2c-0.2,0.2-0.5,0.3-0.7,0.3c-0.1,0-0.3-0.1-0.4-0.2c-1.3,4.2-3.9,8.3-7.1,10.8
		c-1.9,1.5-4,2.3-6.2,2.3s-4.4-0.9-6.3-2.4c-3.2-2.5-5.8-6.6-7.1-10.8c-0.1,0.1-0.2,0.2-0.4,0.2c-0.3,0-0.6-0.1-0.8-0.4
		c-0.6-0.6-1.1-1.7-1.3-3.1c-0.3-1.8-0.1-3.4,0.6-3.8c0.1-0.1,0.2-0.1,0.3-0.1C-422.7,367.4-422.5,367.5-422.3,367.6L-422.3,367.6
		C-422.3,367.7-422.3,367.7-422.3,367.6z M-373.3,406.2c-4-13.7-11.3-14.1-12.9-14.5c-0.2,0-0.4-0.1-0.6-0.1
		c-4.8-4.4-1.5-22.9-1.5-22.9c0-28.2-19.1-25.4-19.1-25.4c-0.2,0-0.5,0-0.7,0s-0.5,0-0.7,0c0,0-19.1-2.8-19.1,25.4
		c0,0,3.3,18.5-1.5,22.9c-0.2,0-0.4,0.1-0.6,0.1c-1.6,0.4-8.9,0.8-12.9,14.5c0,0.2-0.1,0.3-0.1,0.5c-5.1-7.1-8.2-15.8-8.2-25.2
		c0-23.7,19.3-43,43-43s43,19.3,43,43c0,9.4-3,18.1-8.2,25.2C-373.2,406.5-373.3,406.3-373.3,406.2z"/>
	<path class="st1" d="M-391,401.2c-0.3-0.1-0.6-0.1-0.9,0c-0.4,0.1-0.8,0.5-0.9,0.9c-0.2,0.8,0.2,1.5,0.9,1.8
		c0.8,0.2,1.5-0.2,1.8-0.9c0.2-0.5,0-1.1-0.4-1.5C-390.6,401.4-390.7,401.3-391,401.2z"/>
</g>
<g id="Layer_1_1_">
	<g id="XMLID_56_">
		<polygon id="XMLID_1_" class="st1" points="-360.3,447.5 -413.3,447.5 -405.3,422.5 -352.4,422.5 		"/>
		<polygon id="XMLID_84_" class="st2" points="-413.3,447.5 -473.4,447.5 -465.5,422.5 -405.3,422.5 		"/>
		<path id="XMLID_74_" class="st3" d="M-415.3,435.2c-0.6,2-1.5,3.5-2.7,4.5c-1.2,1.1-2.9,1.6-5,1.6c-2.2,0-3.5-0.5-4.1-1.6
			c-0.5-1.1-0.5-2.6,0.1-4.5c0.6-2,1.5-3.5,2.7-4.6s2.9-1.6,5-1.6s3.5,0.5,4.1,1.6C-414.7,431.7-414.7,433.2-415.3,435.2
			 M-422.4,439.5c1,0,1.8-0.4,2.3-1.1s1-1.8,1.4-3.2c0.4-1.5,0.6-2.5,0.5-3.2s-0.6-1.1-1.6-1.1s-1.8,0.4-2.3,1.1s-1,1.8-1.4,3.2
			c-0.4,1.4-0.6,2.4-0.5,3.2C-424,439.1-423.4,439.5-422.4,439.5z M-427.6,435.2c-0.6,2-1.5,3.5-2.7,4.5c-1.2,1.1-2.9,1.6-5,1.6
			c-2.2,0-3.5-0.5-4.1-1.6c-0.5-1.1-0.5-2.6,0.1-4.5c0.6-2,1.5-3.5,2.7-4.6s2.9-1.6,5-1.6c2.2,0,3.5,0.5,4.1,1.6
			C-427,431.7-427,433.2-427.6,435.2z M-434.7,439.5c1,0,1.8-0.4,2.3-1.1s1-1.8,1.4-3.2c0.4-1.5,0.6-2.5,0.5-3.2s-0.6-1.1-1.6-1.1
			s-1.8,0.4-2.3,1.1s-1,1.8-1.4,3.2c-0.4,1.4-0.6,2.4-0.5,3.2C-436.3,439.1-435.7,439.5-434.7,439.5z M-445.4,434
			c0.7,0,1.2-0.1,1.7-0.4s0.8-0.6,0.9-1.1c0.2-0.5,0.1-0.9-0.2-1.1c-0.3-0.3-0.8-0.4-1.5-0.4s-1.2,0.1-1.7,0.4s-0.8,0.6-0.9,1.1
			s-0.1,0.8,0.2,1.1S-446.1,434-445.4,434z M-449,434.7c-0.7-0.4-1.1-0.8-1.2-1.3s-0.1-0.9,0-1.3c0.3-0.9,0.9-1.6,2.1-2.2
			c1.1-0.6,2.5-0.9,4.2-0.9s2.9,0.3,3.7,0.9s1,1.3,0.7,2.2c-0.1,0.4-0.4,0.8-0.8,1.3s-1,0.8-1.9,1.2c0.7,0.3,1.2,0.8,1.5,1.3
			s0.3,1.1,0.1,1.8c-0.3,1-1.1,1.8-2.4,2.5s-2.9,1.1-4.8,1.1s-3.2-0.4-4-1.1s-1-1.5-0.7-2.5c0.2-0.7,0.6-1.3,1.2-1.8
			S-449.9,435-449,434.7z M-447.1,439.5c0.8,0,1.4-0.2,1.9-0.5s0.9-0.8,1.1-1.4s0.1-1.1-0.2-1.4c-0.4-0.3-0.9-0.5-1.6-0.5
			s-1.4,0.2-1.9,0.5s-0.9,0.8-1.1,1.4s-0.1,1.1,0.2,1.4C-448.4,439.3-447.8,439.5-447.1,439.5z M-457,441.4l0.7-2.7h3.6l-0.7,2.7
			H-457z M-459.3,432.7h-4l0.5-1.5c1.1,0,1.8-0.1,2.3-0.1c0.7-0.1,1.3-0.3,1.8-0.6c0.4-0.2,0.7-0.5,0.9-0.8c0.2-0.2,0.2-0.5,0.3-0.5
			h2.8l-3.6,12.1h-3.4L-459.3,432.7z"/>
		<g id="XMLID_58_">
			<path id="XMLID_70_" class="st3" d="M-378.7,431.1h-3.2l-2.4,7.5h3.3c1.7,0,3-0.5,4.1-1.6c0.6-0.6,1-1.3,1.2-2.2
				c0.4-1.2,0.4-2.1,0-2.8C-375.9,431.4-377,431.1-378.7,431.1 M-397.9,438.4l6-9.5h5.1l-3.6,11.8h-3.3l2.5-8l0.3-0.9l0.3-1.1
				l-6.3,10h-3.5l-0.2-10l-0.3,1l-0.3,0.9l-2.5,8.1h-3.3l3.6-11.8h5.2L-397.9,438.4z M-374.8,429.2c1.1,0.3,1.9,0.8,2.5,1.5
				c0.4,0.6,0.6,1.2,0.6,1.9s-0.1,1.4-0.3,2c-0.5,1.6-1.3,2.9-2.6,4c-1.7,1.5-3.8,2.2-6.4,2.2h-7.4l3.6-11.8h7.4
				C-376.3,429-375.4,429.1-374.8,429.2z"/>
			<g id="XMLID_59_">
				<g id="XMLID_65_">
					<path id="XMLID_68_" class="st4" d="M-369.5,429.2h-0.7l0.1-0.3h1.7l-0.1,0.3h-0.6l-0.5,1.9h-0.3L-369.5,429.2z"/>
					<path id="XMLID_66_" class="st4" d="M-367.8,429h0.4l0.2,1.6l0,0l1.1-1.6h0.5l-0.5,2.2h-0.3l0.5-1.9l0,0l-1.1,1.9h-0.3
						l-0.2-1.9l0,0l-0.4,1.9h-0.3L-367.8,429z"/>
				</g>
				<g id="XMLID_60_">
					<path id="XMLID_63_" class="st4" d="M-369.5,429.2h-0.7l0.1-0.3h1.7l-0.1,0.3h-0.6l-0.5,1.9h-0.3L-369.5,429.2z"/>
					<path id="XMLID_61_" class="st4" d="M-367.8,429h0.4l0.2,1.6l0,0l1.1-1.6h0.5l-0.5,2.2h-0.3l0.5-1.9l0,0l-1.1,1.9h-0.3
						l-0.2-1.9l0,0l-0.4,1.9h-0.3L-367.8,429z"/>
				</g>
			</g>
		</g>
		<path id="XMLID_57_" class="st2" d="M-470.5,447.6"/>
	</g>
</g>
</svg>
